<svg width="293" height="56" viewBox="0 0 293 56" fill="none" xmlns="http://www.w3.org/2000/svg">
<path d="M0 31.7163H8.17612C8.38577 34.0248 10.1678 35.883 13.522 35.883C16.4571 35.883 17.6101 34.8694 17.6101 33.2366C17.6101 31.8289 17.1384 30.6464 14.0986 30.2523L8.543 29.5766C3.45913 28.9572 0.733756 26.0293 0.733756 21.1307C0.733756 14.4301 6.0797 11.7274 13.1028 11.7274C20.3355 11.7274 25.367 14.3739 25.8911 20.9617H17.7149C17.4529 18.7658 16.0378 17.4707 13.1552 17.4707C10.1153 17.4707 8.96228 18.6532 8.96228 20.2297C8.96228 21.4122 9.59121 22.482 12.0546 22.7635L17.4529 23.3266C23.6374 24.0023 26.2055 26.705 26.2055 32.1104C26.2055 37.4596 23.1133 41.6826 13.3648 41.6826C3.77359 41.6826 0.209644 36.8965 0 31.7163Z" fill="black"/>
<path d="M39.4052 9.19362H30.0762V3.33775H39.4052V9.19362ZM39.2482 40.7818H30.2334V12.6284H39.2482V40.7818Z" fill="black"/>
<path d="M62.9622 11.7274C69.8279 11.7274 72.8152 16.2883 72.8152 23.6645V40.7818H63.8005V25.2973C63.8005 21.5811 62.3855 19.554 59.2409 19.554C55.6244 19.554 53.5282 22.0316 53.5282 27.5496V40.7818H44.5132V12.6284H53.5282V17.8085C55.2576 14.1486 58.2973 11.7274 62.9622 11.7274Z" fill="black"/>
<path d="M97.863 16.0068V12.6284H106.878V39.1489C106.878 48.2706 102.632 52.6623 91.5737 52.6623C82.0873 52.6623 77.7896 47.9327 77.4228 41.8514H86.1751C86.4899 44.3291 88.1668 46.018 92.0451 46.018C96.0284 46.018 97.863 44.4415 97.863 40.6691V35.6577C96.0809 38.3604 93.1982 39.937 88.9005 39.937C80.2527 39.937 76.7411 33.2929 76.7411 25.8604C76.7411 18.259 80.2527 11.7838 88.9005 11.7838C93.1982 11.7838 96.0809 13.3603 97.863 16.0068ZM91.993 32.8424C96.3953 32.8424 97.863 30.5901 97.863 26.0293C97.863 21.5248 96.3953 19.2725 91.993 19.2725C87.4855 19.2725 85.7558 21.1869 85.7558 26.0293C85.7558 30.928 87.4855 32.8424 91.993 32.8424Z" fill="black"/>
<path d="M176.427 37.7975L185.285 13.5855H189.425L179.101 41.739H173.545L163.22 13.5855H167.623L176.427 37.7975Z" fill="black"/>
<path d="M204.707 39.2049C209.844 39.2049 212.202 36.615 212.988 33.0676H216.814C216.29 37.3469 213.25 42.6398 204.55 42.6398C195.536 42.6398 191.552 36.1082 191.552 27.6059C191.552 19.2162 195.85 12.6847 204.55 12.6847C212.412 12.6847 216.867 18.4842 216.867 26.705C216.867 27.437 216.867 28 216.762 28.6757H195.693C196.007 36.3897 199.466 39.2049 204.707 39.2049ZM204.603 16.1194C199.623 16.1194 196.374 18.6532 195.798 25.2973H212.779C212.569 18.8221 209.477 16.1194 204.603 16.1194Z" fill="black"/>
<path d="M236.025 13.1914H236.969V17.6396H235.868C228.111 17.3581 226.434 23.4392 226.434 31.3784V41.739H222.241V13.5855H226.434V21.187C228.006 16.232 231.047 13.1914 236.025 13.1914Z" fill="black"/>
<path d="M239.344 32.3356H243.223C243.538 36.1645 245.529 39.2049 251.556 39.2049C256.169 39.2049 258.003 37.4596 258.003 34.3064C258.003 31.6037 256.535 30.1397 253.233 29.633L247.154 28.6757C242.594 28 240.026 25.41 240.026 21.0743C240.026 15.8378 243.904 12.6284 250.508 12.6284C257.374 12.6284 261.305 16.3446 261.619 21.6374H257.479C257.217 18.7094 255.225 16.0631 250.403 16.0631C245.948 16.0631 244.114 17.9775 244.114 20.7365C244.114 22.7072 245.057 24.3964 248.359 24.9032L253.915 25.7478C259.942 26.705 262.144 29.464 262.144 34.0812C262.144 39.8246 258.422 42.6398 251.452 42.6398C242.908 42.6398 239.449 38.2477 239.344 32.3356Z" fill="black"/>
<path d="M279.845 42.6398C270.987 42.6398 266.637 36.1082 266.637 27.6059C266.637 19.2162 270.987 12.6847 279.845 12.6847C288.65 12.6847 293 19.2725 293 27.6059C293 36.0519 288.65 42.6398 279.845 42.6398ZM270.882 27.6622C270.882 35.5451 273.922 38.9798 279.845 38.9798C285.767 38.9798 288.755 35.5451 288.755 27.6622C288.755 19.723 285.767 16.3446 279.845 16.3446C273.922 16.3446 270.882 19.723 270.882 27.6622Z" fill="black"/>
<path d="M112.272 25.0258C110.744 26.6684 110.744 29.3317 112.272 30.9743L130.004 50.0285C130.264 49.609 130.57 49.1629 130.922 48.69C131.652 47.7087 132.52 46.6781 133.524 45.5985C134.529 44.519 135.64 43.3901 136.858 42.2126C138.076 41.0674 139.37 39.9551 140.74 38.8756C141.318 38.4175 141.775 38.0415 142.109 37.747C142.445 37.4526 142.719 37.1418 142.932 36.8145C143.145 36.4874 143.327 36.1112 143.48 35.6859C143.632 35.2606 143.83 34.6717 144.073 33.9193C145.23 30.2552 145.245 27.8343 144.119 26.6566C143.723 26.2313 143.206 26.0186 142.566 26.0186H142.064C141.912 26.0186 141.744 26.0514 141.562 26.1168C140.04 26.4112 138.213 27.2127 136.082 28.5213C133.951 29.8299 131.424 31.711 128.501 34.1647C127.101 35.3097 126.066 36.1276 125.396 36.6183C124.757 37.0763 124.224 37.3053 123.798 37.3053C123.493 37.3053 123.204 37.2071 122.93 37.0108C122.534 36.7491 122.291 36.3402 122.2 35.784C122.139 35.2279 122.2 34.4427 122.382 33.4286C122.626 32.12 123.052 30.5987 123.661 28.8648C124.3 27.1309 125.031 25.3316 125.853 23.4669C126.705 21.5694 127.634 19.6883 128.638 17.8236C129.673 15.9261 130.709 14.1922 131.744 12.6219C133.814 9.54672 135.717 7.20758 137.452 5.60457C139.113 4.09631 140.559 3.29761 141.789 3.20843L139.95 1.23196C138.421 -0.410656 135.943 -0.410655 134.414 1.23197L112.272 25.0258Z" fill="black"/>
<path d="M144.906 6.55846C145.028 7.23536 145.131 8.06242 145.215 9.03964C145.306 9.98834 145.352 10.5936 145.352 10.8553C145.352 11.0843 145.291 11.2806 145.169 11.4442C144.987 11.6405 144.773 11.7386 144.53 11.7386C144.073 11.7386 143.769 11.4442 143.617 10.8553C143.556 10.6917 143.51 10.4464 143.48 10.1192C143.449 9.75933 143.419 9.4322 143.388 9.13777C143.327 8.2872 143.206 7.51836 143.023 6.83138C142.871 6.11165 142.719 5.66999 142.566 5.5064C142.445 5.37556 142.262 5.31014 142.018 5.31014C141.531 5.31014 140.922 5.58822 140.192 6.14436C139.491 6.66779 138.776 7.30575 138.045 8.05819C137.345 8.77792 136.691 9.51397 136.082 10.2664C135.503 10.9861 135.077 11.526 134.803 11.8858C133.068 14.3394 131.409 17.0548 129.826 20.0318C128.273 23.0089 126.979 25.9041 125.944 28.7176C125.67 29.4374 125.412 30.1571 125.168 30.8768C124.955 31.5965 124.772 32.2508 124.62 32.8397C124.468 33.4286 124.361 33.9029 124.3 34.2628C124.27 34.6227 124.3 34.7862 124.391 34.7535C124.422 34.7535 124.711 34.5245 125.259 34.0665C125.837 33.6085 126.507 33.0523 127.269 32.3981C128.182 31.6456 129.262 30.7787 130.511 29.7972C131.789 28.783 133.113 27.8343 134.484 26.951C135.854 26.0677 137.239 25.3316 138.639 24.7428C140.04 24.1212 141.333 23.8104 142.521 23.8104C143.83 23.8104 144.865 24.2193 145.626 25.0372C146.387 25.8224 146.828 27.0001 146.95 28.5704C147.072 30.1407 146.844 31.9073 146.265 33.8702C146.174 34.132 146.098 34.361 146.037 34.5572C146.007 34.7535 145.991 34.868 145.991 34.9007C146.022 34.9007 146.204 34.8026 146.539 34.6063C146.874 34.41 147.27 34.181 147.727 33.9193C149.34 32.9379 150.801 32.1363 152.11 31.5147C153.45 30.8604 154.424 30.5006 155.033 30.4352C155.155 30.4025 155.292 30.3861 155.444 30.3861C155.688 30.3861 155.916 30.4842 156.129 30.6805C156.555 31.0404 156.661 31.482 156.449 32.0055C156.266 32.5289 155.901 32.7743 155.352 32.7416H155.124C154.729 32.7416 154.104 32.9542 153.252 33.3795C152.399 33.7721 151.501 34.2301 150.558 34.7535C149.644 35.2769 148.777 35.8004 147.955 36.3238C147.133 36.8473 146.539 37.2397 146.174 37.5015C145.748 37.796 145.413 38.0415 145.169 38.2377C144.926 38.4012 144.728 38.5648 144.576 38.7283C144.423 38.8592 144.302 39.0065 144.21 39.17C144.119 39.3662 143.997 39.5954 143.845 39.8569C143.571 40.4132 143.145 41.1656 142.566 42.1143C141.988 43.063 141.318 44.0773 140.557 45.1568C139.826 46.2364 139.02 47.3323 138.137 48.4445C137.254 49.5571 136.356 50.5547 135.443 51.4381C134.672 52.2377 133.913 52.9004 133.165 53.4259L134.414 54.7681C135.943 56.4106 138.421 56.4106 139.95 54.7681L162.091 30.9743C163.62 29.3317 163.62 26.6684 162.091 25.0258L144.906 6.55846Z" fill="black"/>
<path d="M131.687 51.8375C131.841 51.7396 132.042 51.5898 132.292 51.3892C132.566 51.1926 132.931 50.8655 133.387 50.4075C133.875 49.9495 134.377 49.4262 134.895 48.8373C135.443 48.281 135.975 47.6924 136.493 47.0705C137.01 46.4819 137.452 45.942 137.817 45.4513C138.578 44.437 139.157 43.6193 139.553 42.9977C139.948 42.4088 140.055 42.1963 139.872 42.3598C139.233 42.9157 138.563 43.521 137.863 44.1755C137.163 44.8624 136.478 45.5496 135.808 46.2364C135.138 46.9563 134.514 47.6594 133.936 48.3466C133.357 49.0335 132.87 49.6387 132.474 50.1624C131.994 50.8451 131.667 51.3354 131.497 51.6328L131.687 51.8375Z" fill="black"/>
</svg>
