<svg width="274" height="53" viewBox="0 0 274 53" fill="none" xmlns="http://www.w3.org/2000/svg">
<path d="M0 30.1708H7.64592C7.84198 32.3218 9.50841 34.053 12.6452 34.053C15.3899 34.053 16.4682 33.1087 16.4682 31.5873C16.4682 30.2758 16.0271 29.1741 13.1843 28.8069L7.98902 28.1773C3.23481 27.6002 0.686175 24.8722 0.686175 20.3081C0.686175 14.0651 5.68545 11.547 12.2531 11.547C19.0168 11.547 23.722 14.0127 24.2121 20.1507H16.5662C16.3211 18.1047 14.9978 16.8981 12.3021 16.8981C9.45939 16.8981 8.38111 17.9998 8.38111 19.4687C8.38111 20.5704 8.96926 21.5671 11.2729 21.8294L16.3211 22.3541C22.1046 22.9836 24.5062 25.5018 24.5062 30.5381C24.5062 35.522 21.6145 39.4566 12.4981 39.4566C3.52889 39.4566 0.196049 34.9973 0 30.1708Z" fill="white"/>
<path d="M36.8499 9.18619H28.1258V3.73021H36.8499V9.18619ZM36.7031 38.6173H28.2729V12.3864H36.7031V38.6173Z" fill="white"/>
<path d="M58.8793 11.547C65.2998 11.547 68.0934 15.7964 68.0934 22.6689V38.6173H59.6633V24.1902C59.6633 20.7278 58.3401 18.8391 55.3993 18.8391C52.0174 18.8391 50.0571 21.1475 50.0571 26.2887V38.6173H41.6267V12.3864H50.0571V17.2128C51.6743 13.8028 54.517 11.547 58.8793 11.547Z" fill="white"/>
<path d="M91.517 15.5341V12.3864H99.9471V37.0959C99.9471 45.5947 95.9768 49.6866 85.6355 49.6866C76.7642 49.6866 72.7452 45.2799 72.4022 39.6138H80.587C80.8813 41.9224 82.4495 43.4959 86.0763 43.4959C89.8013 43.4959 91.517 42.0271 91.517 38.5123V33.8432C89.8504 36.3613 87.1546 37.8302 83.1356 37.8302C75.0486 37.8302 71.7648 31.6398 71.7648 24.7148C71.7648 17.6325 75.0486 11.5995 83.1356 11.5995C87.1546 11.5995 89.8504 13.0684 91.517 15.5341ZM86.0276 31.2201C90.1444 31.2201 91.517 29.1216 91.517 24.8722C91.517 20.6753 90.1444 18.5768 86.0276 18.5768C81.8124 18.5768 80.1949 20.3605 80.1949 24.8722C80.1949 29.4364 81.8124 31.2201 86.0276 31.2201Z" fill="white"/>
<path d="M164.987 35.8368L173.27 13.2782H177.142L167.487 39.5091H162.291L152.636 13.2782H156.753L164.987 35.8368Z" fill="white"/>
<path d="M191.433 37.1481C196.236 37.1481 198.442 34.735 199.177 31.4299H202.755C202.265 35.4169 199.422 40.3484 191.286 40.3484C182.856 40.3484 179.131 34.2629 179.131 26.3412C179.131 18.5244 183.15 12.4388 191.286 12.4388C198.638 12.4388 202.804 17.8424 202.804 25.5018C202.804 26.1838 202.804 26.7084 202.706 27.3379H183.003C183.297 34.5251 186.532 37.1481 191.433 37.1481ZM191.335 15.639C186.679 15.639 183.64 17.9998 183.101 24.1902H198.981C198.785 18.1572 195.893 15.639 191.335 15.639Z" fill="white"/>
<path d="M220.72 12.911H221.602V17.0554H220.573C213.319 16.7931 211.751 22.459 211.751 29.8561V39.5091H207.83V13.2782H211.751V20.3605C213.221 15.7439 216.064 12.911 220.72 12.911Z" fill="white"/>
<path d="M223.824 30.7479H227.451C227.745 34.3153 229.607 37.1481 235.244 37.1481C239.557 37.1481 241.272 35.522 241.272 32.5841C241.272 30.0659 239.9 28.7019 236.812 28.2298L231.127 27.3379C226.863 26.7084 224.461 24.2952 224.461 20.2556C224.461 15.3767 228.088 12.3864 234.264 12.3864C240.684 12.3864 244.36 15.8488 244.654 20.7802H240.782C240.537 18.0522 238.675 15.5865 234.165 15.5865C230 15.5865 228.284 17.3702 228.284 19.9408C228.284 21.777 229.166 23.3508 232.254 23.823L237.449 24.6099C243.086 25.5018 245.145 28.0724 245.145 32.3743C245.145 37.7255 241.664 40.3484 235.146 40.3484C227.157 40.3484 223.922 36.2563 223.824 30.7479Z" fill="white"/>
<path d="M261.698 40.3484C253.415 40.3484 249.347 34.2629 249.347 26.3412C249.347 18.5244 253.415 12.4388 261.698 12.4388C269.932 12.4388 274 18.5768 274 26.3412C274 34.2104 269.932 40.3484 261.698 40.3484ZM253.317 26.3936C253.317 33.7382 256.159 36.9383 261.698 36.9383C267.236 36.9383 270.03 33.7382 270.03 26.3936C270.03 18.9965 267.236 15.8488 261.698 15.8488C256.159 15.8488 253.317 18.9965 253.317 26.3936Z" fill="white"/>
<path d="M104.992 23.9373C103.563 25.4677 103.563 27.9491 104.992 29.4795L121.573 47.2326C121.817 46.8418 122.103 46.4261 122.432 45.9855C123.115 45.0712 123.926 44.111 124.866 43.1051C125.805 42.0993 126.845 41.0475 127.984 39.9504C129.122 38.8834 130.332 37.8471 131.613 36.8412C132.154 36.4145 132.581 36.0641 132.894 35.7898C133.208 35.5154 133.464 35.2259 133.663 34.921C133.862 34.6162 134.033 34.2656 134.175 33.8694C134.318 33.4731 134.503 32.9245 134.731 32.2234C135.812 28.8096 135.827 26.554 134.773 25.4566C134.403 25.0604 133.919 24.8623 133.322 24.8623H132.852C132.709 24.8623 132.553 24.8928 132.382 24.9537C130.958 25.2281 129.25 25.9748 127.257 27.1941C125.264 28.4133 122.902 30.166 120.169 32.452C118.859 33.5188 117.891 34.2809 117.265 34.7381C116.667 35.1648 116.169 35.3782 115.77 35.3782C115.485 35.3782 115.215 35.2867 114.959 35.1039C114.588 34.86 114.361 34.479 114.275 33.9608C114.219 33.4426 114.275 32.7111 114.446 31.7662C114.674 30.547 115.073 29.1296 115.642 27.5141C116.24 25.8986 116.923 24.2222 117.692 22.4848C118.489 20.7169 119.357 18.9642 120.297 17.2268C121.265 15.4589 122.233 13.8434 123.201 12.3804C125.136 9.51518 126.916 7.33578 128.539 5.84223C130.092 4.43697 131.444 3.6928 132.594 3.60971L130.875 1.76821C129.445 0.237763 127.127 0.237763 125.698 1.76822L104.992 23.9373Z" fill="#E2F703"/>
<path d="M135.51 6.73098C135.623 7.36166 135.719 8.13224 135.798 9.04273C135.884 9.92664 135.926 10.4906 135.926 10.7344C135.926 10.9478 135.869 11.1307 135.756 11.283C135.585 11.4659 135.385 11.5574 135.158 11.5574C134.731 11.5574 134.446 11.283 134.304 10.7344C134.247 10.582 134.204 10.3534 134.175 10.0486C134.147 9.71327 134.119 9.40848 134.09 9.13415C134.033 8.34167 133.919 7.62533 133.748 6.98526C133.606 6.31468 133.464 5.90318 133.322 5.75076C133.208 5.62886 133.037 5.56791 132.809 5.56791C132.353 5.56791 131.784 5.82699 131.101 6.34516C130.446 6.83285 129.777 7.42724 129.094 8.1283C128.439 8.79888 127.827 9.48467 127.257 10.1858C126.716 10.8563 126.318 11.3593 126.062 11.6945C124.439 13.9806 122.887 16.5105 121.407 19.2843C119.955 22.0581 118.745 24.7556 117.777 27.377C117.521 28.0475 117.279 28.7181 117.051 29.3887C116.852 30.0593 116.681 30.6689 116.539 31.2175C116.396 31.7662 116.297 32.2082 116.24 32.5435C116.212 32.8788 116.24 33.0312 116.325 33.0007C116.354 33.0007 116.624 32.7873 117.136 32.3606C117.677 31.9339 118.304 31.4157 119.016 30.8061C119.87 30.105 120.88 29.2972 122.047 28.3828C123.243 27.4379 124.482 26.554 125.763 25.731C127.044 24.908 128.339 24.2222 129.649 23.6735C130.958 23.0944 132.168 22.8048 133.279 22.8048C134.503 22.8048 135.471 23.1859 136.183 23.9479C136.894 24.6794 137.307 25.7767 137.421 27.2398C137.535 28.7029 137.321 30.3489 136.781 32.1777C136.695 32.4216 136.624 32.6349 136.567 32.8178C136.539 33.0007 136.524 33.1074 136.524 33.1379C136.553 33.1379 136.723 33.0464 137.036 32.8635C137.35 32.6806 137.72 32.4673 138.147 32.2234C139.656 31.309 141.022 30.5622 142.246 29.9831C143.499 29.3734 144.41 29.0382 144.98 28.9772C145.094 28.9467 145.222 28.9315 145.364 28.9315C145.592 28.9315 145.805 29.0229 146.005 29.2058C146.403 29.5411 146.503 29.9526 146.303 30.4403C146.133 30.928 145.791 31.1566 145.278 31.1261H145.065C144.695 31.1261 144.111 31.3242 143.314 31.7205C142.517 32.0862 141.677 32.513 140.795 33.0007C139.94 33.4884 139.129 33.9761 138.36 34.4637C137.592 34.9515 137.036 35.3171 136.695 35.561C136.296 35.8354 135.983 36.0641 135.756 36.2469C135.528 36.3993 135.343 36.5517 135.2 36.7041C135.058 36.826 134.944 36.9632 134.859 37.1156C134.773 37.2984 134.66 37.5119 134.517 37.7555C134.261 38.2738 133.862 38.9749 133.322 39.8588C132.781 40.7427 132.154 41.6877 131.443 42.6936C130.759 43.6995 130.005 44.7205 129.179 45.7568C128.353 46.7934 127.514 47.7229 126.66 48.546C125.939 49.2909 125.229 49.9084 124.53 50.398L125.698 51.6485C127.127 53.1789 129.445 53.1789 130.875 51.6485L151.58 29.4795C153.01 27.9491 153.01 25.4677 151.58 23.9373L135.51 6.73098Z" fill="#E2F703"/>
<path d="M123.148 48.9181C123.291 48.8269 123.48 48.6873 123.713 48.5003C123.969 48.3172 124.311 48.0124 124.738 47.5857C125.193 47.159 125.663 46.6714 126.147 46.1227C126.66 45.6044 127.158 45.056 127.642 44.4766C128.126 43.9282 128.539 43.4251 128.88 42.968C129.592 42.0229 130.133 41.261 130.503 40.6819C130.873 40.1332 130.973 39.9352 130.802 40.0876C130.204 40.6055 129.578 41.1694 128.923 41.7793C128.268 42.4192 127.628 43.0595 127.001 43.6995C126.375 44.3701 125.791 45.0253 125.25 45.6656C124.709 46.3055 124.254 46.8694 123.884 47.3573C123.434 47.9934 123.129 48.4502 122.97 48.7274L123.148 48.9181Z" fill="#E2F703"/>
</svg>
